<svg width="85" height="20" viewBox="0 0 85 20" fill="none" xmlns="http://www.w3.org/2000/svg">
<path d="M80.2213 6.54543H77.7861V13.3182H80.2213V9.81816C80.2213 8.95452 80.4969 8.22725 81.4618 8.22725C82.6564 8.22725 82.5645 9.36361 82.5645 9.99998V13.2727H84.9996V9.09089C84.9996 7.45452 84.2645 6.27271 82.4267 6.27271C81.4618 6.27271 80.7726 6.54543 80.2213 7.36361V6.54543Z" fill="#36393A"/>
<path d="M71.9054 6.54543H69.4702V13.3182H71.9054V9.81816C71.9054 8.95452 72.181 8.22725 73.1918 8.22725C74.3864 8.22725 74.2945 9.36361 74.2945 9.99998V13.2727H76.7297V9.09089C76.7297 7.45452 75.9945 6.27271 74.1567 6.27271C73.1918 6.27271 72.5027 6.54543 71.9513 7.36361H71.9054V6.54543Z" fill="#36393A"/>
<path d="M68.5053 6.54539H66.0702V7.18175C65.5648 6.59084 64.7378 6.31812 63.9567 6.31812C61.9351 6.31812 60.5107 7.95448 60.5107 9.90902C60.5107 11.8636 61.9351 13.5454 63.9567 13.5454C64.7378 13.5454 65.5648 13.2272 66.0243 12.5454H66.0702V13.2727H68.5053V6.54539ZM64.6459 8.40902C65.6107 8.40902 66.208 9.09084 66.208 9.90902C66.208 10.7727 65.6107 11.4545 64.6459 11.4545C63.6351 11.4545 63.0837 10.8181 63.0837 9.90902C63.0837 9.09084 63.681 8.40902 64.6459 8.40902Z" fill="#36393A"/>
<path d="M50.8619 6.54534H48.4268V13.3181H50.8619V10.0908C50.8619 9.36353 50.8619 8.18171 51.9186 8.18171C53.0214 8.18171 53.0214 9.36353 53.0214 10.0908V13.3181H55.4565V10.0908C55.4565 9.31807 55.5024 8.22716 56.6511 8.22716C57.6619 8.22716 57.6619 9.40898 57.6619 10.0908V13.3181H60.097V9.04534C60.097 7.45443 59.4997 6.36353 57.7538 6.36353C56.8349 6.36353 55.9159 6.81807 55.4565 7.68171C54.9511 6.77262 54.1241 6.36353 53.1132 6.36353C52.2403 6.36353 51.5051 6.68171 50.9538 7.40898H50.9078V6.54534H50.8619Z" fill="#36393A"/>
<path d="M40.2026 6.54541V10.6363C40.2026 12.8636 41.8107 13.5909 43.8783 13.5909C45.9459 13.5909 47.554 12.8636 47.554 10.6363V6.54541H45.1189V10.1818C45.1189 11.0454 44.8891 11.6363 43.9243 11.6363C42.9134 11.6363 42.7297 11.0454 42.7297 10.1818V6.54541H40.2026Z" fill="#36393A"/>
<path d="M39.0996 6.54539H36.6644V7.18175C36.159 6.59084 35.332 6.31812 34.5509 6.31812C32.5293 6.31812 31.105 7.95448 31.105 9.90902C31.105 11.8636 32.5293 13.5454 34.5509 13.5454C35.332 13.5454 36.159 13.2272 36.6185 12.5454H36.6644V13.2727H39.0996V6.54539ZM35.1942 8.40902C36.205 8.40902 36.7563 9.09084 36.7563 9.90902C36.7563 10.7727 36.159 11.4545 35.1942 11.4545C34.2293 11.4545 33.632 10.8181 33.632 9.90902C33.632 9.09084 34.2293 8.40902 35.1942 8.40902Z" fill="#36393A"/>
<path d="M28.5323 6.54538H26.0972V13.3181H28.5323V10.5908C28.5323 9.40901 28.8539 8.54538 30.1864 8.54538C30.5539 8.54538 30.9215 8.59083 31.2431 8.77265V6.45447H30.7837C29.8188 6.45447 29.0377 6.8181 28.5782 7.63629H28.5323V6.54538Z" fill="#36393A"/>
<path d="M24.581 8.54545H25.9593V6.54545H24.581V4.5H22.1918V6.54545H21.3647V8.54545H22.1918V13.3182H24.581V8.54545Z" fill="#36393A"/>
<path d="M20.9513 6.77266C20.2162 6.45448 19.4811 6.31812 18.7 6.31812C17.1838 6.31812 15.6676 7.04539 15.6676 8.72721C15.6676 9.95448 16.4486 10.3181 17.1838 10.5454C17.9649 10.7272 18.7 10.7727 18.7 11.3181C18.7 11.6818 18.2405 11.8181 17.9189 11.8181C17.3216 11.8181 16.4946 11.4545 15.9892 11.0908L15.1162 12.7727C15.9432 13.2727 16.9081 13.5454 17.873 13.5454C19.4811 13.5454 21.0892 12.8181 21.0892 10.9999C21.0892 9.77266 20.2162 9.22721 19.1135 8.99993C18.7919 8.95448 18.0108 8.86357 18.0108 8.40902C18.0108 8.09084 18.5162 7.95448 18.7919 7.95448C19.2054 7.95448 19.7108 8.09084 20.0784 8.27266L20.9513 6.77266Z" fill="#36393A"/>
<path d="M13.2324 0.681763C9.69454 2.99994 6.1567 5.36358 2.61886 7.68176C1.0567 8.86358 1.10265 10.6818 2.1594 12.1818L13.1864 4.86358L13.2324 0.681763Z" fill="#36393A"/>
<path d="M0.183594 18.8635C3.72143 16.5453 7.25927 14.1817 10.7971 11.8635C12.3593 10.6817 12.3133 8.86353 11.2566 7.36353L0.22954 14.6817L0.183594 18.8635Z" fill="#36393A"/>
</svg>
