<svg width="237" height="54" viewBox="0 0 237 54" fill="none" xmlns="http://www.w3.org/2000/svg">
<path d="M4.676 14.084C4.116 14.084 3.57467 13.9953 3.052 13.818C2.53867 13.6313 2.072 13.3653 1.652 13.02C1.24133 12.6747 0.914667 12.2593 0.672 11.774L1.498 11.354C1.722 11.7647 2.002 12.11 2.338 12.39C2.674 12.6607 3.04267 12.866 3.444 13.006C3.84533 13.1367 4.24667 13.202 4.648 13.202C5.18933 13.202 5.68867 13.09 6.146 12.866C6.61267 12.642 7.01867 12.334 7.364 11.942C7.70933 11.55 7.97067 11.102 8.148 10.598C8.33467 10.094 8.41867 9.57133 8.4 9.03L8.834 9.324H3.71V8.512H8.806L8.4 8.792C8.39067 8.316 8.29733 7.84467 8.12 7.378C7.952 6.902 7.70933 6.482 7.392 6.118C7.07467 5.74467 6.68733 5.446 6.23 5.222C5.77267 4.998 5.25467 4.886 4.676 4.886C4.27467 4.886 3.88267 4.94667 3.5 5.068C3.12667 5.18933 2.78133 5.38067 2.464 5.642C2.14667 5.90333 1.88067 6.244 1.666 6.664L0.854 6.174C1.19933 5.53933 1.68467 5.02133 2.31 4.62C2.94467 4.20933 3.724 4.004 4.648 4.004C5.404 4.004 6.076 4.14867 6.664 4.438C7.26133 4.718 7.76067 5.10067 8.162 5.586C8.57267 6.062 8.88533 6.594 9.1 7.182C9.31467 7.77 9.422 8.372 9.422 8.988C9.422 9.632 9.30533 10.262 9.072 10.878C8.848 11.4847 8.526 12.0307 8.106 12.516C7.686 12.992 7.182 13.3747 6.594 13.664C6.01533 13.944 5.376 14.084 4.676 14.084ZM11.4091 14V6.706H12.3611V9.828H13.4531L15.9031 6.706H16.9951L14.2091 10.248L17.3451 14H16.2251L13.4531 10.71H12.3611V14H11.4091ZM21.8978 14.14C21.3658 14.14 20.8758 14.042 20.4278 13.846C19.9891 13.6407 19.6018 13.3607 19.2658 13.006C18.9391 12.6513 18.6824 12.2453 18.4958 11.788C18.3184 11.3307 18.2298 10.8453 18.2298 10.332C18.2298 9.64133 18.3838 9.01133 18.6918 8.442C18.9998 7.87267 19.4291 7.42 19.9798 7.084C20.5304 6.748 21.1651 6.58 21.8838 6.58C22.5651 6.58 23.1671 6.73867 23.6898 7.056C24.2124 7.364 24.5998 7.784 24.8518 8.316L23.9278 8.61C23.7224 8.23667 23.4331 7.94733 23.0598 7.742C22.6958 7.52733 22.2898 7.42 21.8418 7.42C21.3564 7.42 20.9131 7.546 20.5118 7.798C20.1104 8.05 19.7884 8.39533 19.5458 8.834C19.3124 9.27267 19.1958 9.772 19.1958 10.332C19.1958 10.8827 19.3171 11.382 19.5598 11.83C19.8024 12.278 20.1244 12.6373 20.5258 12.908C20.9271 13.1693 21.3704 13.3 21.8558 13.3C22.1731 13.3 22.4764 13.244 22.7658 13.132C23.0644 13.02 23.3211 12.8707 23.5358 12.684C23.7598 12.488 23.9091 12.278 23.9838 12.054L24.9218 12.334C24.7911 12.6793 24.5718 12.992 24.2638 13.272C23.9651 13.5427 23.6104 13.7573 23.1998 13.916C22.7984 14.0653 22.3644 14.14 21.8978 14.14ZM26.8233 14V6.706H27.7753V9.828H28.8673L31.3173 6.706H32.4093L29.6233 10.248L32.7593 14H31.6393L28.8673 10.71H27.7753V14H26.8233ZM33.8308 14.042V13.174C34.0828 13.174 34.3068 13.1087 34.5028 12.978C34.6988 12.838 34.8714 12.6047 35.0208 12.278C35.1794 11.9513 35.3054 11.5033 35.3988 10.934C35.4921 10.3553 35.5528 9.62267 35.5808 8.736L35.6648 6.706H40.3968V14H39.4448V7.56H36.5048L36.4768 8.82C36.4394 9.828 36.3601 10.6727 36.2388 11.354C36.1174 12.026 35.9448 12.558 35.7208 12.95C35.5061 13.342 35.2401 13.622 34.9228 13.79C34.6054 13.958 34.2414 14.042 33.8308 14.042ZM48.7035 14.14C48.0688 14.14 47.5041 13.9953 47.0095 13.706C46.5241 13.4167 46.1321 13.02 45.8335 12.516C45.5441 12.0027 45.3761 11.424 45.3295 10.78H43.8735V14H42.9215V6.706H43.8735V9.94H45.3295C45.3855 9.268 45.5628 8.68 45.8615 8.176C46.1601 7.672 46.5521 7.28 47.0375 7C47.5321 6.72 48.0875 6.58 48.7035 6.58C49.4221 6.58 50.0428 6.748 50.5655 7.084C51.0882 7.42 51.4941 7.87267 51.7835 8.442C52.0728 9.01133 52.2175 9.65533 52.2175 10.374C52.2175 11.1113 52.0681 11.7647 51.7695 12.334C51.4802 12.894 51.0695 13.3373 50.5375 13.664C50.0148 13.9813 49.4035 14.14 48.7035 14.14ZM48.7035 13.3C49.2075 13.3 49.6508 13.174 50.0335 12.922C50.4161 12.67 50.7101 12.3247 50.9155 11.886C51.1301 11.4473 51.2375 10.9433 51.2375 10.374C51.2375 9.76733 51.1255 9.24467 50.9015 8.806C50.6868 8.36733 50.3882 8.02667 50.0055 7.784C49.6228 7.54133 49.1888 7.42 48.7035 7.42C48.2275 7.42 47.8028 7.546 47.4295 7.798C47.0561 8.04067 46.7668 8.386 46.5615 8.834C46.3561 9.27267 46.2535 9.786 46.2535 10.374C46.2535 10.962 46.3561 11.48 46.5615 11.928C46.7761 12.3667 47.0701 12.7073 47.4435 12.95C47.8168 13.1833 48.2368 13.3 48.7035 13.3ZM56.352 14.084C55.68 14.084 55.106 13.958 54.63 13.706C54.154 13.4447 53.79 13.0807 53.538 12.614L54.322 12.264C54.4993 12.5907 54.756 12.8473 55.092 13.034C55.428 13.2113 55.834 13.3 56.31 13.3C56.8793 13.3 57.332 13.1693 57.668 12.908C58.0133 12.6467 58.186 12.2967 58.186 11.858C58.186 11.4567 58.0506 11.1347 57.78 10.892C57.5093 10.6493 57.136 10.5233 56.66 10.514H55.918V9.856H56.716C56.9213 9.856 57.108 9.8 57.276 9.688C57.444 9.576 57.5746 9.42667 57.668 9.24C57.7613 9.05333 57.808 8.84333 57.808 8.61C57.808 8.246 57.6773 7.952 57.416 7.728C57.164 7.504 56.7906 7.392 56.296 7.392C55.8853 7.392 55.54 7.476 55.26 7.644C54.9893 7.80267 54.77 8.04067 54.602 8.358L53.874 7.966C54.0886 7.53667 54.406 7.20067 54.826 6.958C55.2553 6.71533 55.7546 6.594 56.324 6.594C56.7906 6.594 57.1966 6.67333 57.542 6.832C57.8966 6.98133 58.172 7.20067 58.368 7.49C58.5733 7.77 58.676 8.11067 58.676 8.512C58.676 8.85733 58.592 9.17933 58.424 9.478C58.256 9.76733 58.0226 9.98667 57.724 10.136C58.1533 10.2667 58.4846 10.4953 58.718 10.822C58.9606 11.1487 59.082 11.5313 59.082 11.97C59.082 12.4087 58.9653 12.7867 58.732 13.104C58.4986 13.4213 58.1766 13.664 57.766 13.832C57.3553 14 56.884 14.084 56.352 14.084ZM61.0834 14V6.72H62.0354V12.712L66.4734 6.706H67.3274V14H66.3754V8.106L62.0074 14H61.0834ZM69.8159 14V6.706H73.4559C73.8666 6.706 74.2119 6.79467 74.4919 6.972C74.7719 7.14 74.9819 7.35933 75.1219 7.63C75.2713 7.90067 75.3459 8.19 75.3459 8.498C75.3459 8.89 75.2526 9.24467 75.0659 9.562C74.8793 9.87 74.6086 10.1033 74.2539 10.262C74.6739 10.3833 75.0146 10.6027 75.2759 10.92C75.5373 11.2373 75.6679 11.62 75.6679 12.068C75.6679 12.46 75.5699 12.8007 75.3739 13.09C75.1873 13.3793 74.9259 13.6033 74.5899 13.762C74.2633 13.9207 73.8853 14 73.4559 14H69.8159ZM70.7259 13.314H73.4279C73.6706 13.314 73.8899 13.2533 74.0859 13.132C74.2913 13.0013 74.4499 12.8333 74.5619 12.628C74.6833 12.4227 74.7439 12.208 74.7439 11.984C74.7439 11.7413 74.6879 11.522 74.5759 11.326C74.4639 11.1207 74.3146 10.9573 74.1279 10.836C73.9413 10.7147 73.7266 10.654 73.4839 10.654H70.7259V13.314ZM70.7259 9.996H73.2039C73.4466 9.996 73.6613 9.93067 73.8479 9.8C74.0346 9.66933 74.1793 9.50133 74.2819 9.296C74.3846 9.09067 74.4359 8.876 74.4359 8.652C74.4359 8.316 74.3239 8.022 74.0999 7.77C73.8853 7.518 73.6053 7.392 73.2599 7.392H70.7259V9.996ZM77.7281 14V6.706H78.6801V9.842H82.8521V6.706H83.8041V14H82.8521V10.696H78.6801V14H77.7281ZM89.4322 14.14C88.9095 14.14 88.4242 14.042 87.9762 13.846C87.5375 13.6407 87.1549 13.3653 86.8282 13.02C86.5109 12.6653 86.2635 12.264 86.0862 11.816C85.9089 11.3587 85.8202 10.878 85.8202 10.374C85.8202 9.85133 85.9089 9.366 86.0862 8.918C86.2635 8.46067 86.5155 8.05933 86.8422 7.714C87.1689 7.35933 87.5515 7.084 87.9902 6.888C88.4382 6.68267 88.9235 6.58 89.4462 6.58C89.9689 6.58 90.4495 6.68267 90.8882 6.888C91.3269 7.084 91.7095 7.35933 92.0362 7.714C92.3629 8.05933 92.6149 8.46067 92.7922 8.918C92.9695 9.366 93.0582 9.85133 93.0582 10.374C93.0582 10.878 92.9695 11.3587 92.7922 11.816C92.6149 12.264 92.3629 12.6653 92.0362 13.02C91.7189 13.3653 91.3362 13.6407 90.8882 13.846C90.4495 14.042 89.9642 14.14 89.4322 14.14ZM86.7862 10.388C86.7862 10.9293 86.9029 11.424 87.1362 11.872C87.3789 12.3107 87.7009 12.6607 88.1022 12.922C88.5035 13.174 88.9469 13.3 89.4322 13.3C89.9175 13.3 90.3609 13.1693 90.7622 12.908C91.1635 12.6467 91.4855 12.292 91.7282 11.844C91.9709 11.3867 92.0922 10.892 92.0922 10.36C92.0922 9.81867 91.9709 9.324 91.7282 8.876C91.4855 8.428 91.1635 8.07333 90.7622 7.812C90.3609 7.55067 89.9175 7.42 89.4322 7.42C88.9469 7.42 88.5035 7.55533 88.1022 7.826C87.7102 8.09667 87.3929 8.456 87.1502 8.904C86.9075 9.34267 86.7862 9.83733 86.7862 10.388ZM98.2204 14.14C97.6977 14.14 97.2124 14.042 96.7644 13.846C96.3164 13.6407 95.9291 13.3653 95.6024 13.02C95.2757 12.6653 95.0191 12.2593 94.8324 11.802C94.6551 11.3447 94.5664 10.8547 94.5664 10.332C94.5664 9.65067 94.7204 9.02533 95.0284 8.456C95.3457 7.88667 95.7797 7.434 96.3304 7.098C96.8811 6.75267 97.5064 6.58 98.2064 6.58C98.9251 6.58 99.5504 6.75267 100.082 7.098C100.624 7.44333 101.048 7.90067 101.356 8.47C101.664 9.03 101.818 9.646 101.818 10.318C101.818 10.3927 101.818 10.4673 101.818 10.542C101.818 10.6073 101.814 10.6587 101.804 10.696H95.5604C95.6071 11.2187 95.7517 11.6853 95.9944 12.096C96.2464 12.4973 96.5684 12.8193 96.9604 13.062C97.3617 13.2953 97.7957 13.412 98.2624 13.412C98.7384 13.412 99.1864 13.2907 99.6064 13.048C100.036 12.8053 100.334 12.488 100.502 12.096L101.328 12.32C101.179 12.6653 100.95 12.978 100.642 13.258C100.334 13.538 99.9704 13.7573 99.5504 13.916C99.1397 14.0653 98.6964 14.14 98.2204 14.14ZM95.5324 10.01H100.922C100.885 9.478 100.74 9.01133 100.488 8.61C100.246 8.20867 99.9237 7.896 99.5224 7.672C99.1304 7.43867 98.6964 7.322 98.2204 7.322C97.7444 7.322 97.3104 7.43867 96.9184 7.672C96.5264 7.896 96.2044 8.21333 95.9524 8.624C95.7097 9.02533 95.5697 9.48733 95.5324 10.01ZM107.682 14V6.706H113.548V14H112.596V7.56H108.634V14H107.682ZM119.797 14.14C119.19 14.14 118.644 13.9813 118.159 13.664C117.683 13.3467 117.305 12.9547 117.025 12.488V16.982H116.073V6.706H116.927V8.12C117.216 7.66267 117.603 7.294 118.089 7.014C118.574 6.72467 119.092 6.58 119.643 6.58C120.147 6.58 120.609 6.68733 121.029 6.902C121.449 7.10733 121.813 7.38733 122.121 7.742C122.429 8.09667 122.667 8.50267 122.835 8.96C123.012 9.408 123.101 9.87467 123.101 10.36C123.101 11.0413 122.961 11.6713 122.681 12.25C122.41 12.8193 122.027 13.2767 121.533 13.622C121.038 13.9673 120.459 14.14 119.797 14.14ZM119.531 13.3C119.932 13.3 120.291 13.2207 120.609 13.062C120.926 12.894 121.197 12.67 121.421 12.39C121.654 12.11 121.831 11.7973 121.953 11.452C122.074 11.0973 122.135 10.7333 122.135 10.36C122.135 9.968 122.065 9.59467 121.925 9.24C121.794 8.88533 121.603 8.57267 121.351 8.302C121.099 8.03133 120.809 7.81667 120.483 7.658C120.156 7.49933 119.801 7.42 119.419 7.42C119.176 7.42 118.924 7.46667 118.663 7.56C118.401 7.65333 118.149 7.78867 117.907 7.966C117.673 8.134 117.477 8.32533 117.319 8.54C117.16 8.75467 117.062 8.98333 117.025 9.226V11.466C117.174 11.8113 117.375 12.124 117.627 12.404C117.879 12.6747 118.168 12.894 118.495 13.062C118.831 13.2207 119.176 13.3 119.531 13.3ZM128.283 14.14C127.761 14.14 127.275 14.042 126.827 13.846C126.379 13.6407 125.992 13.3653 125.665 13.02C125.339 12.6653 125.082 12.2593 124.895 11.802C124.718 11.3447 124.629 10.8547 124.629 10.332C124.629 9.65067 124.783 9.02533 125.091 8.456C125.409 7.88667 125.843 7.434 126.393 7.098C126.944 6.75267 127.569 6.58 128.269 6.58C128.988 6.58 129.613 6.75267 130.145 7.098C130.687 7.44333 131.111 7.90067 131.419 8.47C131.727 9.03 131.881 9.646 131.881 10.318C131.881 10.3927 131.881 10.4673 131.881 10.542C131.881 10.6073 131.877 10.6587 131.867 10.696H125.623C125.67 11.2187 125.815 11.6853 126.057 12.096C126.309 12.4973 126.631 12.8193 127.023 13.062C127.425 13.2953 127.859 13.412 128.325 13.412C128.801 13.412 129.249 13.2907 129.669 13.048C130.099 12.8053 130.397 12.488 130.565 12.096L131.391 12.32C131.242 12.6653 131.013 12.978 130.705 13.258C130.397 13.538 130.033 13.7573 129.613 13.916C129.203 14.0653 128.759 14.14 128.283 14.14ZM125.595 10.01H130.985C130.948 9.478 130.803 9.01133 130.551 8.61C130.309 8.20867 129.987 7.896 129.585 7.672C129.193 7.43867 128.759 7.322 128.283 7.322C127.807 7.322 127.373 7.43867 126.981 7.672C126.589 7.896 126.267 8.21333 126.015 8.624C125.773 9.02533 125.633 9.48733 125.595 10.01ZM132.958 15.694V13.146H133.084C133.299 13.146 133.495 13.0807 133.672 12.95C133.849 12.8193 134.008 12.5907 134.148 12.264C134.288 11.9373 134.4 11.4893 134.484 10.92C134.568 10.3413 134.624 9.61333 134.652 8.736L134.722 6.706H139.468V13.146H140.448V15.694H139.594V14H133.798V15.694H132.958ZM134.526 13.146H138.516V7.56H135.576L135.534 8.82C135.506 9.688 135.445 10.416 135.352 11.004C135.268 11.5827 135.156 12.0447 135.016 12.39C134.885 12.726 134.722 12.978 134.526 13.146ZM141.611 14.042V13.174C141.863 13.174 142.087 13.1087 142.283 12.978C142.479 12.838 142.652 12.6047 142.801 12.278C142.96 11.9513 143.086 11.5033 143.179 10.934C143.272 10.3553 143.333 9.62267 143.361 8.736L143.445 6.706H148.177V14H147.225V7.56H144.285L144.257 8.82C144.22 9.828 144.14 10.6727 144.019 11.354C143.898 12.026 143.725 12.558 143.501 12.95C143.286 13.342 143.02 13.622 142.703 13.79C142.386 13.958 142.022 14.042 141.611 14.042ZM153.81 14.14C153.287 14.14 152.802 14.042 152.354 13.846C151.915 13.6407 151.532 13.3653 151.206 13.02C150.888 12.6653 150.641 12.264 150.464 11.816C150.286 11.3587 150.198 10.878 150.198 10.374C150.198 9.85133 150.286 9.366 150.464 8.918C150.641 8.46067 150.893 8.05933 151.22 7.714C151.546 7.35933 151.929 7.084 152.368 6.888C152.816 6.68267 153.301 6.58 153.824 6.58C154.346 6.58 154.827 6.68267 155.266 6.888C155.704 7.084 156.087 7.35933 156.414 7.714C156.74 8.05933 156.992 8.46067 157.17 8.918C157.347 9.366 157.436 9.85133 157.436 10.374C157.436 10.878 157.347 11.3587 157.17 11.816C156.992 12.264 156.74 12.6653 156.414 13.02C156.096 13.3653 155.714 13.6407 155.266 13.846C154.827 14.042 154.342 14.14 153.81 14.14ZM151.164 10.388C151.164 10.9293 151.28 11.424 151.514 11.872C151.756 12.3107 152.078 12.6607 152.48 12.922C152.881 13.174 153.324 13.3 153.81 13.3C154.295 13.3 154.738 13.1693 155.14 12.908C155.541 12.6467 155.863 12.292 156.106 11.844C156.348 11.3867 156.47 10.892 156.47 10.36C156.47 9.81867 156.348 9.324 156.106 8.876C155.863 8.428 155.541 8.07333 155.14 7.812C154.738 7.55067 154.295 7.42 153.81 7.42C153.324 7.42 152.881 7.55533 152.48 7.826C152.088 8.09667 151.77 8.456 151.528 8.904C151.285 9.34267 151.164 9.83733 151.164 10.388ZM158.93 14L161.66 10.248L159.196 6.706H160.274L162.472 9.856H163.424V6.706H164.404V9.856H165.384L167.54 6.706H168.632L166.154 10.248L168.912 14H167.806L165.384 10.696H164.404V14H163.424V10.696H162.472L160.036 14H158.93ZM174.065 14.14C173.542 14.14 173.057 14.042 172.609 13.846C172.161 13.6407 171.774 13.3653 171.447 13.02C171.12 12.6653 170.864 12.2593 170.677 11.802C170.5 11.3447 170.411 10.8547 170.411 10.332C170.411 9.65067 170.565 9.02533 170.873 8.456C171.19 7.88667 171.624 7.434 172.175 7.098C172.726 6.75267 173.351 6.58 174.051 6.58C174.77 6.58 175.395 6.75267 175.927 7.098C176.468 7.44333 176.893 7.90067 177.201 8.47C177.509 9.03 177.663 9.646 177.663 10.318C177.663 10.3927 177.663 10.4673 177.663 10.542C177.663 10.6073 177.658 10.6587 177.649 10.696H171.405C171.452 11.2187 171.596 11.6853 171.839 12.096C172.091 12.4973 172.413 12.8193 172.805 13.062C173.206 13.2953 173.64 13.412 174.107 13.412C174.583 13.412 175.031 13.2907 175.451 13.048C175.88 12.8053 176.179 12.488 176.347 12.096L177.173 12.32C177.024 12.6653 176.795 12.978 176.487 13.258C176.179 13.538 175.815 13.7573 175.395 13.916C174.984 14.0653 174.541 14.14 174.065 14.14ZM171.377 10.01H176.767C176.73 9.478 176.585 9.01133 176.333 8.61C176.09 8.20867 175.768 7.896 175.367 7.672C174.975 7.43867 174.541 7.322 174.065 7.322C173.589 7.322 173.155 7.43867 172.763 7.672C172.371 7.896 172.049 8.21333 171.797 8.624C171.554 9.02533 171.414 9.48733 171.377 10.01ZM179.538 14V6.706H180.49V9.842H184.662V6.706H185.614V14H184.662V10.696H180.49V14H179.538ZM188.12 14V6.72H189.072V12.712L193.51 6.706H194.364V14H193.412V8.106L189.044 14H188.12ZM200.016 14.14C199.494 14.14 199.008 14.042 198.56 13.846C198.112 13.6407 197.725 13.3653 197.398 13.02C197.072 12.6653 196.815 12.2593 196.628 11.802C196.451 11.3447 196.362 10.8547 196.362 10.332C196.362 9.65067 196.516 9.02533 196.824 8.456C197.142 7.88667 197.576 7.434 198.126 7.098C198.677 6.75267 199.302 6.58 200.002 6.58C200.721 6.58 201.346 6.75267 201.878 7.098C202.42 7.44333 202.844 7.90067 203.152 8.47C203.46 9.03 203.614 9.646 203.614 10.318C203.614 10.3927 203.614 10.4673 203.614 10.542C203.614 10.6073 203.61 10.6587 203.6 10.696H197.356C197.403 11.2187 197.548 11.6853 197.79 12.096C198.042 12.4973 198.364 12.8193 198.756 13.062C199.158 13.2953 199.592 13.412 200.058 13.412C200.534 13.412 200.982 13.2907 201.402 13.048C201.832 12.8053 202.13 12.488 202.298 12.096L203.124 12.32C202.975 12.6653 202.746 12.978 202.438 13.258C202.13 13.538 201.766 13.7573 201.346 13.916C200.936 14.0653 200.492 14.14 200.016 14.14ZM197.328 10.01H202.718C202.681 9.478 202.536 9.01133 202.284 8.61C202.042 8.20867 201.72 7.896 201.318 7.672C200.926 7.43867 200.492 7.322 200.016 7.322C199.54 7.322 199.106 7.43867 198.714 7.672C198.322 7.896 198 8.21333 197.748 8.624C197.506 9.02533 197.366 9.48733 197.328 10.01ZM1.036 32V24.706H1.988V27.842H6.16V24.706H7.112V32H6.16V28.696H1.988V32H1.036ZM9.04411 29.9C9.04411 29.4427 9.17478 29.0507 9.43611 28.724C9.69744 28.388 10.0568 28.1313 10.5141 27.954C10.9808 27.7673 11.5174 27.674 12.1241 27.674C12.4788 27.674 12.8474 27.702 13.2301 27.758C13.6128 27.814 13.9534 27.898 14.2521 28.01V27.394C14.2521 26.778 14.0701 26.288 13.7061 25.924C13.3421 25.56 12.8381 25.378 12.1941 25.378C11.8021 25.378 11.4148 25.4527 11.0321 25.602C10.6588 25.742 10.2668 25.952 9.85611 26.232L9.49211 25.56C9.96811 25.2333 10.4348 24.9907 10.8921 24.832C11.3494 24.664 11.8161 24.58 12.2921 24.58C13.1881 24.58 13.8974 24.8367 14.4201 25.35C14.9428 25.8633 15.2041 26.5727 15.2041 27.478V30.852C15.2041 30.9827 15.2321 31.0807 15.2881 31.146C15.3441 31.202 15.4328 31.2347 15.5541 31.244V32C15.4514 32.0093 15.3628 32.0187 15.2881 32.028C15.2134 32.0373 15.1574 32.0373 15.1201 32.028C14.8868 32.0187 14.7094 31.944 14.5881 31.804C14.4668 31.664 14.4014 31.5147 14.3921 31.356L14.3781 30.824C14.0514 31.244 13.6268 31.5707 13.1041 31.804C12.5814 32.028 12.0494 32.14 11.5081 32.14C11.0414 32.14 10.6168 32.042 10.2341 31.846C9.86078 31.6407 9.56678 31.37 9.35211 31.034C9.14678 30.6887 9.04411 30.3107 9.04411 29.9ZM13.9301 30.46C14.0328 30.3293 14.1121 30.2033 14.1681 30.082C14.2241 29.9607 14.2521 29.8533 14.2521 29.76V28.696C13.9348 28.5747 13.6034 28.4813 13.2581 28.416C12.9221 28.3507 12.5814 28.318 12.2361 28.318C11.5548 28.318 11.0041 28.4533 10.5841 28.724C10.1641 28.9947 9.95411 29.3633 9.95411 29.83C9.95411 30.1007 10.0241 30.3573 10.1641 30.6C10.3041 30.8333 10.5094 31.0293 10.7801 31.188C11.0508 31.3373 11.3681 31.412 11.7321 31.412C12.1894 31.412 12.6141 31.3233 13.0061 31.146C13.4074 30.9687 13.7154 30.74 13.9301 30.46ZM21.6554 32V24.72H22.6074V30.712L27.0454 24.706H27.8994V32H26.9474V26.106L22.5794 32H21.6554ZM30.3879 32V24.706H31.3679L34.2659 29.732L37.1779 24.706H38.1159V32H37.2059V26.134L34.5739 30.698H33.9579L31.2979 26.134V32H30.3879ZM40.6243 32V24.706H46.4903V32H45.5383V25.56H41.5763V32H40.6243ZM48.3153 32.042V31.174C48.5673 31.174 48.7913 31.1087 48.9873 30.978C49.1833 30.838 49.356 30.6047 49.5053 30.278C49.664 29.9513 49.79 29.5033 49.8833 28.934C49.9766 28.3553 50.0373 27.6227 50.0653 26.736L50.1493 24.706H54.8813V32H53.9293V25.56H50.9893L50.9613 26.82C50.924 27.828 50.8446 28.6727 50.7233 29.354C50.602 30.026 50.4293 30.558 50.2053 30.95C49.9906 31.342 49.7246 31.622 49.4073 31.79C49.09 31.958 48.726 32.042 48.3153 32.042ZM56.818 29.9C56.818 29.4427 56.9487 29.0507 57.21 28.724C57.4713 28.388 57.8307 28.1313 58.288 27.954C58.7547 27.7673 59.2913 27.674 59.898 27.674C60.2527 27.674 60.6213 27.702 61.004 27.758C61.3867 27.814 61.7273 27.898 62.026 28.01V27.394C62.026 26.778 61.844 26.288 61.48 25.924C61.116 25.56 60.612 25.378 59.968 25.378C59.576 25.378 59.1887 25.4527 58.806 25.602C58.4327 25.742 58.0407 25.952 57.63 26.232L57.266 25.56C57.742 25.2333 58.2087 24.9907 58.666 24.832C59.1233 24.664 59.59 24.58 60.066 24.58C60.962 24.58 61.6713 24.8367 62.194 25.35C62.7167 25.8633 62.978 26.5727 62.978 27.478V30.852C62.978 30.9827 63.006 31.0807 63.062 31.146C63.118 31.202 63.2067 31.2347 63.328 31.244V32C63.2253 32.0093 63.1367 32.0187 63.062 32.028C62.9873 32.0373 62.9313 32.0373 62.894 32.028C62.6607 32.0187 62.4833 31.944 62.362 31.804C62.2407 31.664 62.1753 31.5147 62.166 31.356L62.152 30.824C61.8253 31.244 61.4007 31.5707 60.878 31.804C60.3553 32.028 59.8233 32.14 59.282 32.14C58.8153 32.14 58.3907 32.042 58.008 31.846C57.6347 31.6407 57.3407 31.37 57.126 31.034C56.9207 30.6887 56.818 30.3107 56.818 29.9ZM61.704 30.46C61.8067 30.3293 61.886 30.2033 61.942 30.082C61.998 29.9607 62.026 29.8533 62.026 29.76V28.696C61.7087 28.5747 61.3773 28.4813 61.032 28.416C60.696 28.3507 60.3553 28.318 60.01 28.318C59.3287 28.318 58.778 28.4533 58.358 28.724C57.938 28.9947 57.728 29.3633 57.728 29.83C57.728 30.1007 57.798 30.3573 57.938 30.6C58.078 30.8333 58.2833 31.0293 58.554 31.188C58.8247 31.3373 59.142 31.412 59.506 31.412C59.9633 31.412 60.388 31.3233 60.78 31.146C61.1813 30.9687 61.4893 30.74 61.704 30.46ZM65.4409 32V24.706H66.3929V27.842H70.5649V24.706H71.5169V32H70.5649V28.696H66.3929V32H65.4409ZM75.857 32V25.56H73.253V24.706H79.413V25.56H76.809V32H75.857ZM80.4999 29.9C80.4999 29.4427 80.6306 29.0507 80.8919 28.724C81.1532 28.388 81.5126 28.1313 81.9699 27.954C82.4366 27.7673 82.9732 27.674 83.5799 27.674C83.9346 27.674 84.3032 27.702 84.6859 27.758C85.0686 27.814 85.4092 27.898 85.7079 28.01V27.394C85.7079 26.778 85.5259 26.288 85.1619 25.924C84.7979 25.56 84.2939 25.378 83.6499 25.378C83.2579 25.378 82.8706 25.4527 82.4879 25.602C82.1146 25.742 81.7226 25.952 81.3119 26.232L80.9479 25.56C81.4239 25.2333 81.8906 24.9907 82.3479 24.832C82.8052 24.664 83.2719 24.58 83.7479 24.58C84.6439 24.58 85.3532 24.8367 85.8759 25.35C86.3986 25.8633 86.6599 26.5727 86.6599 27.478V30.852C86.6599 30.9827 86.6879 31.0807 86.7439 31.146C86.7999 31.202 86.8886 31.2347 87.0099 31.244V32C86.9072 32.0093 86.8186 32.0187 86.7439 32.028C86.6692 32.0373 86.6132 32.0373 86.5759 32.028C86.3426 32.0187 86.1652 31.944 86.0439 31.804C85.9226 31.664 85.8572 31.5147 85.8479 31.356L85.8339 30.824C85.5072 31.244 85.0826 31.5707 84.5599 31.804C84.0372 32.028 83.5052 32.14 82.9639 32.14C82.4972 32.14 82.0726 32.042 81.6899 31.846C81.3166 31.6407 81.0226 31.37 80.8079 31.034C80.6026 30.6887 80.4999 30.3107 80.4999 29.9ZM85.3859 30.46C85.4886 30.3293 85.5679 30.2033 85.6239 30.082C85.6799 29.9607 85.7079 29.8533 85.7079 29.76V28.696C85.3906 28.5747 85.0592 28.4813 84.7139 28.416C84.3779 28.3507 84.0372 28.318 83.6919 28.318C83.0106 28.318 82.4599 28.4533 82.0399 28.724C81.6199 28.9947 81.4099 29.3633 81.4099 29.83C81.4099 30.1007 81.4799 30.3573 81.6199 30.6C81.7599 30.8333 81.9652 31.0293 82.2359 31.188C82.5066 31.3373 82.8239 31.412 83.1879 31.412C83.6452 31.412 84.0699 31.3233 84.4619 31.146C84.8632 30.9687 85.1712 30.74 85.3859 30.46ZM94.9468 33.694V32H89.1228V24.706H90.0748V31.16H93.8548V24.706H94.8068V31.16H95.8008V33.694H94.9468ZM97.6502 32V24.72H98.6022V30.712L103.04 24.706H103.894V32H102.942V26.106L98.5742 32H97.6502ZM112.179 32.14C111.544 32.14 110.979 31.9953 110.485 31.706C109.999 31.4167 109.607 31.02 109.309 30.516C109.019 30.0027 108.851 29.424 108.805 28.78H107.349V32H106.397V24.706H107.349V27.94H108.805C108.861 27.268 109.038 26.68 109.337 26.176C109.635 25.672 110.027 25.28 110.513 25C111.007 24.72 111.563 24.58 112.179 24.58C112.897 24.58 113.518 24.748 114.041 25.084C114.563 25.42 114.969 25.8727 115.259 26.442C115.548 27.0113 115.693 27.6553 115.693 28.374C115.693 29.1113 115.543 29.7647 115.245 30.334C114.955 30.894 114.545 31.3373 114.013 31.664C113.49 31.9813 112.879 32.14 112.179 32.14ZM112.179 31.3C112.683 31.3 113.126 31.174 113.509 30.922C113.891 30.67 114.185 30.3247 114.391 29.886C114.605 29.4473 114.713 28.9433 114.713 28.374C114.713 27.7673 114.601 27.2447 114.377 26.806C114.162 26.3673 113.863 26.0267 113.481 25.784C113.098 25.5413 112.664 25.42 112.179 25.42C111.703 25.42 111.278 25.546 110.905 25.798C110.531 26.0407 110.242 26.386 110.037 26.834C109.831 27.2727 109.729 27.786 109.729 28.374C109.729 28.962 109.831 29.48 110.037 29.928C110.251 30.3667 110.545 30.7073 110.919 30.95C111.292 31.1833 111.712 31.3 112.179 31.3ZM4.214 50.14C3.682 50.14 3.192 50.042 2.744 49.846C2.30533 49.6407 1.918 49.3607 1.582 49.006C1.25533 48.6513 0.998667 48.2453 0.812 47.788C0.634667 47.3307 0.546 46.8453 0.546 46.332C0.546 45.6413 0.7 45.0113 1.008 44.442C1.316 43.8727 1.74533 43.42 2.296 43.084C2.84667 42.748 3.48133 42.58 4.2 42.58C4.88133 42.58 5.48333 42.7387 6.006 43.056C6.52867 43.364 6.916 43.784 7.168 44.316L6.244 44.61C6.03867 44.2367 5.74933 43.9473 5.376 43.742C5.012 43.5273 4.606 43.42 4.158 43.42C3.67267 43.42 3.22933 43.546 2.828 43.798C2.42667 44.05 2.10467 44.3953 1.862 44.834C1.62867 45.2727 1.512 45.772 1.512 46.332C1.512 46.8827 1.63333 47.382 1.876 47.83C2.11867 48.278 2.44067 48.6373 2.842 48.908C3.24333 49.1693 3.68667 49.3 4.172 49.3C4.48933 49.3 4.79267 49.244 5.082 49.132C5.38067 49.02 5.63733 48.8707 5.852 48.684C6.076 48.488 6.22533 48.278 6.3 48.054L7.238 48.334C7.10733 48.6793 6.888 48.992 6.58 49.272C6.28133 49.5427 5.92667 49.7573 5.516 49.916C5.11467 50.0653 4.68067 50.14 4.214 50.14ZM18.952 51.694V50H13.128V42.706H14.08V49.16H17.86V42.706H18.812V49.16H19.806V51.694H18.952ZM21.6554 50V42.72H22.6074V48.712L27.0454 42.706H27.8994V50H26.9474V44.106L22.5794 50H21.6554ZM34.1259 50.14C33.5192 50.14 32.9732 49.9813 32.4879 49.664C32.0119 49.3467 31.6339 48.9547 31.3539 48.488V52.982H30.4019V42.706H31.2559V44.12C31.5452 43.6627 31.9325 43.294 32.4179 43.014C32.9032 42.7247 33.4212 42.58 33.9719 42.58C34.4759 42.58 34.9379 42.6873 35.3579 42.902C35.7779 43.1073 36.1419 43.3873 36.4499 43.742C36.7579 44.0967 36.9959 44.5027 37.1639 44.96C37.3412 45.408 37.4299 45.8747 37.4299 46.36C37.4299 47.0413 37.2899 47.6713 37.0099 48.25C36.7392 48.8193 36.3565 49.2767 35.8619 49.622C35.3672 49.9673 34.7885 50.14 34.1259 50.14ZM33.8599 49.3C34.2612 49.3 34.6205 49.2207 34.9379 49.062C35.2552 48.894 35.5259 48.67 35.7499 48.39C35.9832 48.11 36.1605 47.7973 36.2819 47.452C36.4032 47.0973 36.4639 46.7333 36.4639 46.36C36.4639 45.968 36.3939 45.5947 36.2539 45.24C36.1232 44.8853 35.9319 44.5727 35.6799 44.302C35.4279 44.0313 35.1385 43.8167 34.8119 43.658C34.4852 43.4993 34.1305 43.42 33.7479 43.42C33.5052 43.42 33.2532 43.4667 32.9919 43.56C32.7305 43.6533 32.4785 43.7887 32.2359 43.966C32.0025 44.134 31.8065 44.3253 31.6479 44.54C31.4892 44.7547 31.3912 44.9833 31.3539 45.226V47.466C31.5032 47.8113 31.7039 48.124 31.9559 48.404C32.2079 48.6747 32.4972 48.894 32.8239 49.062C33.1599 49.2207 33.5052 49.3 33.8599 49.3ZM39.4485 50V42.706H40.4005V45.828H41.4925L43.9425 42.706H45.0345L42.2485 46.248L45.3845 50H44.2645L41.4925 46.71H40.4005V50H39.4485ZM49.8811 50.14C49.3585 50.14 48.8731 50.042 48.4251 49.846C47.9865 49.6407 47.6038 49.3653 47.2771 49.02C46.9598 48.6653 46.7125 48.264 46.5351 47.816C46.3578 47.3587 46.2691 46.878 46.2691 46.374C46.2691 45.8513 46.3578 45.366 46.5351 44.918C46.7125 44.4607 46.9645 44.0593 47.2911 43.714C47.6178 43.3593 48.0005 43.084 48.4391 42.888C48.8871 42.6827 49.3725 42.58 49.8951 42.58C50.4178 42.58 50.8985 42.6827 51.3371 42.888C51.7758 43.084 52.1585 43.3593 52.4851 43.714C52.8118 44.0593 53.0638 44.4607 53.2411 44.918C53.4185 45.366 53.5071 45.8513 53.5071 46.374C53.5071 46.878 53.4185 47.3587 53.2411 47.816C53.0638 48.264 52.8118 48.6653 52.4851 49.02C52.1678 49.3653 51.7851 49.6407 51.3371 49.846C50.8985 50.042 50.4131 50.14 49.8811 50.14ZM47.2351 46.388C47.2351 46.9293 47.3518 47.424 47.5851 47.872C47.8278 48.3107 48.1498 48.6607 48.5511 48.922C48.9525 49.174 49.3958 49.3 49.8811 49.3C50.3665 49.3 50.8098 49.1693 51.2111 48.908C51.6125 48.6467 51.9345 48.292 52.1771 47.844C52.4198 47.3867 52.5411 46.892 52.5411 46.36C52.5411 45.8187 52.4198 45.324 52.1771 44.876C51.9345 44.428 51.6125 44.0733 51.2111 43.812C50.8098 43.5507 50.3665 43.42 49.8811 43.42C49.3958 43.42 48.9525 43.5553 48.5511 43.826C48.1591 44.0967 47.8418 44.456 47.5991 44.904C47.3565 45.3427 47.2351 45.8373 47.2351 46.388ZM55.5053 50V42.706H56.4573V45.842H60.6293V42.706H61.5813V50H60.6293V46.696H56.4573V50H55.5053ZM64.0874 50V42.72H65.0394V48.712L69.4774 42.706H70.3314V50H69.3794V44.106L65.0114 50H64.0874ZM75.9839 50.14C75.4612 50.14 74.9759 50.042 74.5279 49.846C74.0799 49.6407 73.6926 49.3653 73.3659 49.02C73.0392 48.6653 72.7826 48.2593 72.5959 47.802C72.4186 47.3447 72.3299 46.8547 72.3299 46.332C72.3299 45.6507 72.4839 45.0253 72.7919 44.456C73.1092 43.8867 73.5432 43.434 74.0939 43.098C74.6446 42.7527 75.2699 42.58 75.9699 42.58C76.6886 42.58 77.3139 42.7527 77.8459 43.098C78.3872 43.4433 78.8119 43.9007 79.1199 44.47C79.4279 45.03 79.5819 45.646 79.5819 46.318C79.5819 46.3927 79.5819 46.4673 79.5819 46.542C79.5819 46.6073 79.5772 46.6587 79.5679 46.696H73.3239C73.3706 47.2187 73.5152 47.6853 73.7579 48.096C74.0099 48.4973 74.3319 48.8193 74.7239 49.062C75.1252 49.2953 75.5592 49.412 76.0259 49.412C76.5019 49.412 76.9499 49.2907 77.3699 49.048C77.7992 48.8053 78.0979 48.488 78.2659 48.096L79.0919 48.32C78.9426 48.6653 78.7139 48.978 78.4059 49.258C78.0979 49.538 77.7339 49.7573 77.3139 49.916C76.9032 50.0653 76.4599 50.14 75.9839 50.14ZM73.2959 46.01H78.6859C78.6486 45.478 78.5039 45.0113 78.2519 44.61C78.0092 44.2087 77.6872 43.896 77.2859 43.672C76.8939 43.4387 76.4599 43.322 75.9839 43.322C75.5079 43.322 75.0739 43.4387 74.6819 43.672C74.2899 43.896 73.9679 44.2133 73.7159 44.624C73.4732 45.0253 73.3332 45.4873 73.2959 46.01ZM81.4567 50V42.706H85.0967C85.5074 42.706 85.8527 42.7947 86.1327 42.972C86.4127 43.14 86.6227 43.3593 86.7627 43.63C86.912 43.9007 86.9867 44.19 86.9867 44.498C86.9867 44.89 86.8934 45.2447 86.7067 45.562C86.52 45.87 86.2494 46.1033 85.8947 46.262C86.3147 46.3833 86.6554 46.6027 86.9167 46.92C87.178 47.2373 87.3087 47.62 87.3087 48.068C87.3087 48.46 87.2107 48.8007 87.0147 49.09C86.828 49.3793 86.5667 49.6033 86.2307 49.762C85.904 49.9207 85.526 50 85.0967 50H81.4567ZM82.3667 49.314H85.0687C85.3114 49.314 85.5307 49.2533 85.7267 49.132C85.932 49.0013 86.0907 48.8333 86.2027 48.628C86.324 48.4227 86.3847 48.208 86.3847 47.984C86.3847 47.7413 86.3287 47.522 86.2167 47.326C86.1047 47.1207 85.9554 46.9573 85.7687 46.836C85.582 46.7147 85.3674 46.654 85.1247 46.654H82.3667V49.314ZM82.3667 45.996H84.8447C85.0874 45.996 85.302 45.9307 85.4887 45.8C85.6754 45.6693 85.82 45.5013 85.9227 45.296C86.0254 45.0907 86.0767 44.876 86.0767 44.652C86.0767 44.316 85.9647 44.022 85.7407 43.77C85.526 43.518 85.246 43.392 84.9007 43.392H82.3667V45.996ZM92.4909 50.14C91.9682 50.14 91.4829 50.042 91.0349 49.846C90.5962 49.6407 90.2136 49.3653 89.8869 49.02C89.5696 48.6653 89.3222 48.264 89.1449 47.816C88.9676 47.3587 88.8789 46.878 88.8789 46.374C88.8789 45.8513 88.9676 45.366 89.1449 44.918C89.3222 44.4607 89.5742 44.0593 89.9009 43.714C90.2276 43.3593 90.6102 43.084 91.0489 42.888C91.4969 42.6827 91.9822 42.58 92.5049 42.58C93.0276 42.58 93.5082 42.6827 93.9469 42.888C94.3856 43.084 94.7682 43.3593 95.0949 43.714C95.4216 44.0593 95.6736 44.4607 95.8509 44.918C96.0282 45.366 96.1169 45.8513 96.1169 46.374C96.1169 46.878 96.0282 47.3587 95.8509 47.816C95.6736 48.264 95.4216 48.6653 95.0949 49.02C94.7776 49.3653 94.3949 49.6407 93.9469 49.846C93.5082 50.042 93.0229 50.14 92.4909 50.14ZM89.8449 46.388C89.8449 46.9293 89.9616 47.424 90.1949 47.872C90.4376 48.3107 90.7596 48.6607 91.1609 48.922C91.5622 49.174 92.0056 49.3 92.4909 49.3C92.9762 49.3 93.4196 49.1693 93.8209 48.908C94.2222 48.6467 94.5442 48.292 94.7869 47.844C95.0296 47.3867 95.1509 46.892 95.1509 46.36C95.1509 45.8187 95.0296 45.324 94.7869 44.876C94.5442 44.428 94.2222 44.0733 93.8209 43.812C93.4196 43.5507 92.9762 43.42 92.4909 43.42C92.0056 43.42 91.5622 43.5553 91.1609 43.826C90.7689 44.0967 90.4516 44.456 90.2089 44.904C89.9662 45.3427 89.8449 45.8373 89.8449 46.388ZM98.1151 50V42.72H99.0671V48.712L103.505 42.706H104.359V50H103.407V44.106L99.0391 50H98.1151ZM101.251 41.782C100.616 41.782 100.126 41.6327 99.7811 41.334C99.4357 41.0353 99.2631 40.6573 99.2631 40.2H99.9631C99.9631 40.48 100.066 40.7133 100.271 40.9C100.486 41.0867 100.812 41.18 101.251 41.18C101.68 41.18 101.993 41.0913 102.189 40.914C102.394 40.7367 102.511 40.4987 102.539 40.2H103.225C103.225 40.6573 103.052 41.0353 102.707 41.334C102.362 41.6327 101.876 41.782 101.251 41.782ZM110.836 50V42.706H111.788V45.828H112.88L115.33 42.706H116.422L113.636 46.248L116.772 50H115.652L112.88 46.71H111.788V50H110.836ZM121.269 50.14C120.746 50.14 120.261 50.042 119.813 49.846C119.374 49.6407 118.991 49.3653 118.665 49.02C118.347 48.6653 118.1 48.264 117.923 47.816C117.745 47.3587 117.657 46.878 117.657 46.374C117.657 45.8513 117.745 45.366 117.923 44.918C118.1 44.4607 118.352 44.0593 118.679 43.714C119.005 43.3593 119.388 43.084 119.827 42.888C120.275 42.6827 120.76 42.58 121.283 42.58C121.805 42.58 122.286 42.6827 122.725 42.888C123.163 43.084 123.546 43.3593 123.873 43.714C124.199 44.0593 124.451 44.4607 124.629 44.918C124.806 45.366 124.895 45.8513 124.895 46.374C124.895 46.878 124.806 47.3587 124.629 47.816C124.451 48.264 124.199 48.6653 123.873 49.02C123.555 49.3653 123.173 49.6407 122.725 49.846C122.286 50.042 121.801 50.14 121.269 50.14ZM118.623 46.388C118.623 46.9293 118.739 47.424 118.973 47.872C119.215 48.3107 119.537 48.6607 119.939 48.922C120.34 49.174 120.783 49.3 121.269 49.3C121.754 49.3 122.197 49.1693 122.599 48.908C123 48.6467 123.322 48.292 123.565 47.844C123.807 47.3867 123.929 46.892 123.929 46.36C123.929 45.8187 123.807 45.324 123.565 44.876C123.322 44.428 123 44.0733 122.599 43.812C122.197 43.5507 121.754 43.42 121.269 43.42C120.783 43.42 120.34 43.5553 119.939 43.826C119.547 44.0967 119.229 44.456 118.987 44.904C118.744 45.3427 118.623 45.8373 118.623 46.388ZM130.631 50.14C130.024 50.14 129.478 49.9813 128.993 49.664C128.517 49.3467 128.139 48.9547 127.859 48.488V52.982H126.907V42.706H127.761V44.12C128.05 43.6627 128.437 43.294 128.923 43.014C129.408 42.7247 129.926 42.58 130.477 42.58C130.981 42.58 131.443 42.6873 131.863 42.902C132.283 43.1073 132.647 43.3873 132.955 43.742C133.263 44.0967 133.501 44.5027 133.669 44.96C133.846 45.408 133.935 45.8747 133.935 46.36C133.935 47.0413 133.795 47.6713 133.515 48.25C133.244 48.8193 132.861 49.2767 132.367 49.622C131.872 49.9673 131.293 50.14 130.631 50.14ZM130.365 49.3C130.766 49.3 131.125 49.2207 131.443 49.062C131.76 48.894 132.031 48.67 132.255 48.39C132.488 48.11 132.665 47.7973 132.787 47.452C132.908 47.0973 132.969 46.7333 132.969 46.36C132.969 45.968 132.899 45.5947 132.759 45.24C132.628 44.8853 132.437 44.5727 132.185 44.302C131.933 44.0313 131.643 43.8167 131.317 43.658C130.99 43.4993 130.635 43.42 130.253 43.42C130.01 43.42 129.758 43.4667 129.497 43.56C129.235 43.6533 128.983 43.7887 128.741 43.966C128.507 44.134 128.311 44.3253 128.153 44.54C127.994 44.7547 127.896 44.9833 127.859 45.226V47.466C128.008 47.8113 128.209 48.124 128.461 48.404C128.713 48.6747 129.002 48.894 129.329 49.062C129.665 49.2207 130.01 49.3 130.365 49.3ZM139.075 50.14C138.553 50.14 138.067 50.042 137.619 49.846C137.181 49.6407 136.798 49.3653 136.471 49.02C136.154 48.6653 135.907 48.264 135.729 47.816C135.552 47.3587 135.463 46.878 135.463 46.374C135.463 45.8513 135.552 45.366 135.729 44.918C135.907 44.4607 136.159 44.0593 136.485 43.714C136.812 43.3593 137.195 43.084 137.633 42.888C138.081 42.6827 138.567 42.58 139.089 42.58C139.612 42.58 140.093 42.6827 140.531 42.888C140.97 43.084 141.353 43.3593 141.679 43.714C142.006 44.0593 142.258 44.4607 142.435 44.918C142.613 45.366 142.701 45.8513 142.701 46.374C142.701 46.878 142.613 47.3587 142.435 47.816C142.258 48.264 142.006 48.6653 141.679 49.02C141.362 49.3653 140.979 49.6407 140.531 49.846C140.093 50.042 139.607 50.14 139.075 50.14ZM136.429 46.388C136.429 46.9293 136.546 47.424 136.779 47.872C137.022 48.3107 137.344 48.6607 137.745 48.922C138.147 49.174 138.59 49.3 139.075 49.3C139.561 49.3 140.004 49.1693 140.405 48.908C140.807 48.6467 141.129 48.292 141.371 47.844C141.614 47.3867 141.735 46.892 141.735 46.36C141.735 45.8187 141.614 45.324 141.371 44.876C141.129 44.428 140.807 44.0733 140.405 43.812C140.004 43.5507 139.561 43.42 139.075 43.42C138.59 43.42 138.147 43.5553 137.745 43.826C137.353 44.0967 137.036 44.456 136.793 44.904C136.551 45.3427 136.429 45.8373 136.429 46.388ZM144.7 50V42.706H145.652V45.842H149.824V42.706H150.776V50H149.824V46.696H145.652V50H144.7ZM153.282 50V42.706H154.234V45.828H155.326L157.776 42.706H158.868L156.082 46.248L159.218 50H158.098L155.326 46.71H154.234V50H153.282ZM163.714 50.14C163.192 50.14 162.706 50.042 162.258 49.846C161.82 49.6407 161.437 49.3653 161.11 49.02C160.793 48.6653 160.546 48.264 160.368 47.816C160.191 47.3587 160.102 46.878 160.102 46.374C160.102 45.8513 160.191 45.366 160.368 44.918C160.546 44.4607 160.798 44.0593 161.124 43.714C161.451 43.3593 161.834 43.084 162.272 42.888C162.72 42.6827 163.206 42.58 163.728 42.58C164.251 42.58 164.732 42.6827 165.17 42.888C165.609 43.084 165.992 43.3593 166.318 43.714C166.645 44.0593 166.897 44.4607 167.074 44.918C167.252 45.366 167.34 45.8513 167.34 46.374C167.34 46.878 167.252 47.3587 167.074 47.816C166.897 48.264 166.645 48.6653 166.318 49.02C166.001 49.3653 165.618 49.6407 165.17 49.846C164.732 50.042 164.246 50.14 163.714 50.14ZM161.068 46.388C161.068 46.9293 161.185 47.424 161.418 47.872C161.661 48.3107 161.983 48.6607 162.384 48.922C162.786 49.174 163.229 49.3 163.714 49.3C164.2 49.3 164.643 49.1693 165.044 48.908C165.446 48.6467 165.768 48.292 166.01 47.844C166.253 47.3867 166.374 46.892 166.374 46.36C166.374 45.8187 166.253 45.324 166.01 44.876C165.768 44.428 165.446 44.0733 165.044 43.812C164.643 43.5507 164.2 43.42 163.714 43.42C163.229 43.42 162.786 43.5553 162.384 43.826C161.992 44.0967 161.675 44.456 161.432 44.904C161.19 45.3427 161.068 45.8373 161.068 46.388ZM169.338 50V42.72H170.29V48.712L174.728 42.706H175.582V50H174.63V44.106L170.262 50H169.338ZM172.474 41.782C171.84 41.782 171.35 41.6327 171.004 41.334C170.659 41.0353 170.486 40.6573 170.486 40.2H171.186C171.186 40.48 171.289 40.7133 171.494 40.9C171.709 41.0867 172.036 41.18 172.474 41.18C172.904 41.18 173.216 41.0913 173.412 40.914C173.618 40.7367 173.734 40.4987 173.762 40.2H174.448C174.448 40.6573 174.276 41.0353 173.93 41.334C173.585 41.6327 173.1 41.782 172.474 41.782Z" fill="#1D1D1F"/>
<path d="M142.548 32.4721C144.011 32.4721 145.283 32.0254 146.328 31.3926C144.466 35.3012 140.135 38 135.158 38C128.433 38 123 33.0863 123 27C123 20.9323 128.433 16 135.158 16C140.382 16 144.922 18.9966 146.594 23.2589C146.594 23.2589 134.36 23.2589 134.303 23.2589C131.796 23.4078 129.858 25.4365 129.858 27.8748C129.858 30.22 131.663 32.1557 134.018 32.4349C134.151 32.4535 134.322 32.4721 134.607 32.4721H142.548Z" fill="#862573"/>
<mask id="mask0_84_2783" style="mask-type:luminance" maskUnits="userSpaceOnUse" x="138" y="23" width="9" height="9">
<path d="M138.729 27.8562C138.729 30.0897 140.572 31.8951 142.852 31.8951C145.131 31.8951 146.974 30.0897 146.974 27.8562C146.974 25.6227 145.131 23.8173 142.852 23.8173C140.572 23.7987 138.729 25.6227 138.729 27.8562Z" fill="white"/>
</mask>
<g mask="url(#mask0_84_2783)">
<path d="M146.993 23.7986H138.729V31.895H146.993V23.7986Z" fill="url(#paint0_radial_84_2783)"/>
</g>
<path d="M235.556 21.8257C234.72 21.8257 234.093 22.4771 234.093 23.2588C234.093 24.0406 234.739 24.6734 235.556 24.6734H235.575C236.373 24.6548 237 24.022 237 23.2588C236.981 22.4771 236.354 21.8443 235.556 21.8257ZM235.556 24.5059C234.834 24.5059 234.245 23.9475 234.245 23.2588C234.245 22.5516 234.815 22.0118 235.537 22.0118H235.556C236.259 22.0118 236.81 22.5702 236.81 23.2588C236.81 23.9475 236.259 24.4873 235.556 24.5059ZM235.879 23.4264C235.841 23.3891 235.803 23.3705 235.746 23.3519C235.898 23.3333 236.012 23.2775 236.088 23.203C236.164 23.1472 236.202 23.0355 236.202 22.9424C236.202 22.8494 236.183 22.7749 236.145 22.7005C236.088 22.626 236.05 22.5888 235.974 22.5702C235.898 22.533 235.784 22.5143 235.632 22.5143H235.575H234.948V24.0778H235.157V23.3705H235.404C235.461 23.3705 235.48 23.3705 235.518 23.3891C235.537 23.3891 235.556 23.3891 235.575 23.4077C235.594 23.4077 235.613 23.4264 235.613 23.4264C235.651 23.445 235.689 23.4822 235.727 23.5194C235.765 23.5753 235.803 23.6497 235.879 23.7428L236.088 24.0778H236.354L236.069 23.6497C235.993 23.538 235.955 23.4636 235.879 23.4264ZM235.594 23.1658H235.556H235.138V22.6446H235.556H235.651C235.765 22.6446 235.86 22.6819 235.898 22.7191C235.955 22.7749 235.993 22.8122 235.993 22.9052C235.993 22.9611 235.974 22.9983 235.955 23.0355C235.917 23.0913 235.898 23.1099 235.822 23.1286C235.765 23.1658 235.689 23.1658 235.594 23.1658ZM153.091 22.1235H155.864L159.777 30.6294H159.815L160.955 22.1235H163.425L161.696 34.0913H159.018L155.066 25.6971H155.028L153.888 34.0913H151.381L153.091 22.1235ZM165.647 22.1235H173.759L173.455 24.3384H168.041L167.68 26.9069H172.6L172.296 28.9543H167.376L166.958 31.8764H172.467L172.144 34.0913H163.938L165.647 22.1235ZM200.925 22.1235H209.036L208.732 24.3384H203.318L202.957 26.9069H207.877L207.573 28.9543H202.653L202.235 31.8764H207.763L207.441 34.0913H199.234L200.925 22.1235ZM180.256 21.8443C183.561 21.8443 185.803 23.6125 186.05 26.9627C186.335 30.9086 184.188 34.3705 179.914 34.3705C176.495 34.3705 174.367 32.4534 174.12 29.0846C173.835 25.2132 176.153 21.8443 180.256 21.8443ZM179.781 32.1742C182.422 32.1742 183.542 29.4196 183.372 27.1675C183.258 25.4924 182.403 24.0778 180.427 24.0778C177.672 24.0778 176.628 26.8138 176.78 29.1032C176.913 30.7225 177.843 32.1742 179.781 32.1742ZM188.558 22.1235H192.965C196.365 22.1235 198.265 23.8544 198.474 26.7766C198.778 30.9458 196.631 34.0727 191.939 34.0727H186.829L188.558 22.1235ZM189.83 31.8764H191.901C194.637 31.8764 196.004 29.7732 195.833 27.2419C195.719 25.511 194.884 24.3384 192.965 24.3384H190.951L189.83 31.8764ZM211.297 22.1235H214.07L217.984 30.6294H218.022L219.162 22.1235H221.631L219.902 34.0913H217.224L213.273 25.6971H213.235L212.095 34.0913H209.587L211.297 22.1235ZM226.114 24.3384H222.277L222.6 22.1235H232.782L232.459 24.3384H228.793L227.406 34.0913H224.709L226.114 24.3384Z" fill="#262430"/>
<defs>
<radialGradient id="paint0_radial_84_2783" cx="0" cy="0" r="1" gradientUnits="userSpaceOnUse" gradientTransform="translate(146.85 23.9705) rotate(-90) scale(10.1121 10.3209)">
<stop stop-color="#E4E4E5"/>
<stop offset="0.1767" stop-color="#E1E1E2"/>
<stop offset="0.3186" stop-color="#D8D7D8"/>
<stop offset="0.4485" stop-color="#C8C6C7"/>
<stop offset="0.5713" stop-color="#B2AFAF"/>
<stop offset="0.689" stop-color="#959190"/>
<stop offset="0.8028" stop-color="#726C6A"/>
<stop offset="0.9116" stop-color="#4A413F"/>
<stop offset="1" stop-color="#231815"/>
</radialGradient>
</defs>
</svg>
