<svg width="165" height="33" viewBox="0 0 165 33" fill="none" xmlns="http://www.w3.org/2000/svg">
<path d="M1.023 13V5.19H1.782V11.944L6.622 5.19H7.337V13H6.578V6.367L1.793 13H1.023ZM9.39142 13V7.269H10.1614L12.4384 11.218L14.7264 7.269H15.4634V13H14.7484V8.391L12.6804 11.977H12.1964L10.1064 8.391V13H9.39142ZM17.3243 13V7.269H21.9333V13H21.1853V7.94H18.0723V13H17.3243ZM23.2573 13.033V12.351C23.4553 12.351 23.6313 12.2997 23.7853 12.197C23.9393 12.087 24.0749 11.9037 24.1923 11.647C24.3169 11.3903 24.4159 11.0383 24.4893 10.591C24.5626 10.1363 24.6103 9.56067 24.6323 8.864L24.6983 7.269H28.4163V13H27.6683V7.94H25.3583L25.3363 8.93C25.3069 9.722 25.2446 10.3857 25.1493 10.921C25.0539 11.449 24.9183 11.867 24.7423 12.175C24.5736 12.483 24.3646 12.703 24.1153 12.835C23.8659 12.967 23.5799 13.033 23.2573 13.033ZM29.828 11.35C29.828 10.9907 29.9306 10.6827 30.136 10.426C30.3413 10.162 30.6236 9.96033 30.983 9.821C31.3496 9.67433 31.7713 9.601 32.248 9.601C32.5266 9.601 32.8163 9.623 33.117 9.667C33.4176 9.711 33.6853 9.777 33.92 9.865V9.381C33.92 8.897 33.777 8.512 33.491 8.226C33.205 7.94 32.809 7.797 32.303 7.797C31.995 7.797 31.6906 7.85567 31.39 7.973C31.0966 8.083 30.7886 8.248 30.466 8.468L30.18 7.94C30.554 7.68333 30.9206 7.49267 31.28 7.368C31.6393 7.236 32.006 7.17 32.38 7.17C33.084 7.17 33.6413 7.37167 34.052 7.775C34.4626 8.17833 34.668 8.73567 34.668 9.447V12.098C34.668 12.2007 34.69 12.2777 34.734 12.329C34.778 12.373 34.8476 12.3987 34.943 12.406V13C34.8623 13.0073 34.7926 13.0147 34.734 13.022C34.6753 13.0293 34.6313 13.0293 34.602 13.022C34.4186 13.0147 34.2793 12.956 34.184 12.846C34.0886 12.736 34.0373 12.6187 34.03 12.494L34.019 12.076C33.7623 12.406 33.4286 12.6627 33.018 12.846C32.6073 13.022 32.1893 13.11 31.764 13.11C31.3973 13.11 31.0636 13.033 30.763 12.879C30.4696 12.7177 30.2386 12.505 30.07 12.241C29.9086 11.9697 29.828 11.6727 29.828 11.35ZM33.667 11.79C33.7476 11.6873 33.81 11.5883 33.854 11.493C33.898 11.3977 33.92 11.3133 33.92 11.24V10.404C33.6706 10.3087 33.4103 10.2353 33.139 10.184C32.875 10.1327 32.6073 10.107 32.336 10.107C31.8006 10.107 31.368 10.2133 31.038 10.426C30.708 10.6387 30.543 10.9283 30.543 11.295C30.543 11.5077 30.598 11.7093 30.708 11.9C30.818 12.0833 30.9793 12.2373 31.192 12.362C31.4046 12.4793 31.654 12.538 31.94 12.538C32.2993 12.538 32.633 12.4683 32.941 12.329C33.2563 12.1897 33.4983 12.01 33.667 11.79ZM36.4931 13V7.269H37.2411V9.733H40.5191V7.269H41.2671V13H40.5191V10.404H37.2411V13H36.4931ZM44.5672 13V7.94H42.5212V7.269H47.3612V7.94H45.3152V13H44.5672ZM48.1051 11.35C48.1051 10.9907 48.2078 10.6827 48.4131 10.426C48.6185 10.162 48.9008 9.96033 49.2601 9.821C49.6268 9.67433 50.0485 9.601 50.5251 9.601C50.8038 9.601 51.0935 9.623 51.3941 9.667C51.6948 9.711 51.9625 9.777 52.1971 9.865V9.381C52.1971 8.897 52.0541 8.512 51.7681 8.226C51.4821 7.94 51.0861 7.797 50.5801 7.797C50.2721 7.797 49.9678 7.85567 49.6671 7.973C49.3738 8.083 49.0658 8.248 48.7431 8.468L48.4571 7.94C48.8311 7.68333 49.1978 7.49267 49.5571 7.368C49.9165 7.236 50.2831 7.17 50.6571 7.17C51.3611 7.17 51.9185 7.37167 52.3291 7.775C52.7398 8.17833 52.9451 8.73567 52.9451 9.447V12.098C52.9451 12.2007 52.9671 12.2777 53.0111 12.329C53.0551 12.373 53.1248 12.3987 53.2201 12.406V13C53.1395 13.0073 53.0698 13.0147 53.0111 13.022C52.9525 13.0293 52.9085 13.0293 52.8791 13.022C52.6958 13.0147 52.5565 12.956 52.4611 12.846C52.3658 12.736 52.3145 12.6187 52.3071 12.494L52.2961 12.076C52.0395 12.406 51.7058 12.6627 51.2951 12.846C50.8845 13.022 50.4665 13.11 50.0411 13.11C49.6745 13.11 49.3408 13.033 49.0401 12.879C48.7468 12.7177 48.5158 12.505 48.3471 12.241C48.1858 11.9697 48.1051 11.6727 48.1051 11.35ZM51.9441 11.79C52.0248 11.6873 52.0871 11.5883 52.1311 11.493C52.1751 11.3977 52.1971 11.3133 52.1971 11.24V10.404C51.9478 10.3087 51.6875 10.2353 51.4161 10.184C51.1521 10.1327 50.8845 10.107 50.6131 10.107C50.0778 10.107 49.6451 10.2133 49.3151 10.426C48.9851 10.6387 48.8201 10.9283 48.8201 11.295C48.8201 11.5077 48.8751 11.7093 48.9851 11.9C49.0951 12.0833 49.2565 12.2373 49.4691 12.362C49.6818 12.4793 49.9311 12.538 50.2171 12.538C50.5765 12.538 50.9101 12.4683 51.2181 12.329C51.5335 12.1897 51.7755 12.01 51.9441 11.79ZM59.3463 14.331V13H54.7703V7.269H55.5183V12.34H58.4883V7.269H59.2363V12.34H60.0173V14.331H59.3463ZM61.3604 13V7.28H62.1084V11.988L65.5954 7.269H66.2664V13H65.5184V8.369L62.0864 13H61.3604ZM67.6937 13L69.3987 10.657C69.01 10.5983 68.6947 10.4297 68.4527 10.151C68.218 9.865 68.1007 9.47633 68.1007 8.985C68.1007 8.655 68.1777 8.36167 68.3317 8.105C68.4857 7.84833 68.702 7.643 68.9807 7.489C69.2667 7.335 69.6003 7.258 69.9817 7.258H72.1707V13H71.4227V10.778H70.1467L68.5297 13H67.6937ZM69.9707 10.206H71.4227V7.852H70.1027C69.7213 7.852 69.417 7.962 69.1897 8.182C68.9623 8.39467 68.8487 8.666 68.8487 8.996C68.8487 9.33333 68.9403 9.61933 69.1237 9.854C69.3143 10.0887 69.5967 10.206 69.9707 10.206ZM3.993 24.787V25.403H2.629V26.888H1.936V25.403H0.572V24.787H1.936V23.302H2.629V24.787H3.993ZM13.1991 30.331V29H8.62314V23.269H9.37114V28.34H12.3411V23.269H13.0891V28.34H13.8701V30.331H13.1991ZM15.2133 29V23.28H15.9613V27.988L19.4483 23.269H20.1193V29H19.3713V24.369L15.9393 29H15.2133ZM24.9015 29.11C24.4248 29.11 23.9958 28.9853 23.6145 28.736C23.2405 28.4867 22.9435 28.1787 22.7235 27.812V31.343H21.9755V23.269H22.6465V24.38C22.8738 24.0207 23.1782 23.731 23.5595 23.511C23.9408 23.2837 24.3478 23.17 24.7805 23.17C25.1765 23.17 25.5395 23.2543 25.8695 23.423C26.1995 23.5843 26.4855 23.8043 26.7275 24.083C26.9695 24.3617 27.1565 24.6807 27.2885 25.04C27.4278 25.392 27.4975 25.7587 27.4975 26.14C27.4975 26.6753 27.3875 27.1703 27.1675 27.625C26.9548 28.0723 26.6542 28.4317 26.2655 28.703C25.8768 28.9743 25.4222 29.11 24.9015 29.11ZM24.6925 28.45C25.0078 28.45 25.2902 28.3877 25.5395 28.263C25.7888 28.131 26.0015 27.955 26.1775 27.735C26.3608 27.515 26.5002 27.2693 26.5955 26.998C26.6908 26.7193 26.7385 26.4333 26.7385 26.14C26.7385 25.832 26.6835 25.5387 26.5735 25.26C26.4708 24.9813 26.3205 24.7357 26.1225 24.523C25.9245 24.3103 25.6972 24.1417 25.4405 24.017C25.1838 23.8923 24.9052 23.83 24.6045 23.83C24.4138 23.83 24.2158 23.8667 24.0105 23.94C23.8052 24.0133 23.6072 24.1197 23.4165 24.259C23.2332 24.391 23.0792 24.5413 22.9545 24.71C22.8298 24.8787 22.7528 25.0583 22.7235 25.249V27.009C22.8408 27.2803 22.9985 27.526 23.1965 27.746C23.3945 27.9587 23.6218 28.131 23.8785 28.263C24.1425 28.3877 24.4138 28.45 24.6925 28.45ZM28.9736 29V23.269H29.7216V25.722H30.5796L32.5046 23.269H33.3626L31.1736 26.052L33.6376 29H32.7576L30.5796 26.415H29.7216V29H28.9736ZM37.0606 29.11C36.65 29.11 36.2686 29.033 35.9166 28.879C35.572 28.7177 35.2713 28.5013 35.0146 28.23C34.7653 27.9513 34.571 27.636 34.4316 27.284C34.2923 26.9247 34.2226 26.547 34.2226 26.151C34.2226 25.7403 34.2923 25.359 34.4316 25.007C34.571 24.6477 34.769 24.3323 35.0256 24.061C35.2823 23.7823 35.583 23.566 35.9276 23.412C36.2796 23.2507 36.661 23.17 37.0716 23.17C37.4823 23.17 37.86 23.2507 38.2046 23.412C38.5493 23.566 38.85 23.7823 39.1066 24.061C39.3633 24.3323 39.5613 24.6477 39.7006 25.007C39.84 25.359 39.9096 25.7403 39.9096 26.151C39.9096 26.547 39.84 26.9247 39.7006 27.284C39.5613 27.636 39.3633 27.9513 39.1066 28.23C38.8573 28.5013 38.5566 28.7177 38.2046 28.879C37.86 29.033 37.4786 29.11 37.0606 29.11ZM34.9816 26.162C34.9816 26.5873 35.0733 26.976 35.2566 27.328C35.4473 27.6727 35.7003 27.9477 36.0156 28.153C36.331 28.351 36.6793 28.45 37.0606 28.45C37.442 28.45 37.7903 28.3473 38.1056 28.142C38.421 27.9367 38.674 27.658 38.8646 27.306C39.0553 26.9467 39.1506 26.558 39.1506 26.14C39.1506 25.7147 39.0553 25.326 38.8646 24.974C38.674 24.622 38.421 24.3433 38.1056 24.138C37.7903 23.9327 37.442 23.83 37.0606 23.83C36.6793 23.83 36.331 23.9363 36.0156 24.149C35.7076 24.3617 35.4583 24.644 35.2676 24.996C35.077 25.3407 34.9816 25.7293 34.9816 26.162ZM41.3696 29V23.269H42.1176V25.733H45.3956V23.269H46.1436V29H45.3956V26.404H42.1176V29H41.3696ZM48.0027 29V23.28H48.7507V27.988L52.2377 23.269H52.9087V29H52.1607V24.369L48.7287 29H48.0027ZM57.24 29.11C56.8293 29.11 56.448 29.033 56.096 28.879C55.744 28.7177 55.4396 28.5013 55.183 28.23C54.9263 27.9513 54.7246 27.6323 54.578 27.273C54.4386 26.9137 54.369 26.5287 54.369 26.118C54.369 25.5827 54.49 25.0913 54.732 24.644C54.9813 24.1967 55.3223 23.841 55.755 23.577C56.1876 23.3057 56.679 23.17 57.229 23.17C57.7936 23.17 58.285 23.3057 58.703 23.577C59.1283 23.8483 59.462 24.2077 59.704 24.655C59.946 25.095 60.067 25.579 60.067 26.107C60.067 26.1657 60.067 26.2243 60.067 26.283C60.067 26.3343 60.0633 26.3747 60.056 26.404H55.15C55.1866 26.8147 55.3003 27.1813 55.491 27.504C55.689 27.8193 55.942 28.0723 56.25 28.263C56.5653 28.4463 56.9063 28.538 57.273 28.538C57.647 28.538 57.999 28.4427 58.329 28.252C58.6663 28.0613 58.901 27.812 59.033 27.504L59.682 27.68C59.5646 27.9513 59.385 28.197 59.143 28.417C58.901 28.637 58.615 28.8093 58.285 28.934C57.9623 29.0513 57.614 29.11 57.24 29.11ZM55.128 25.865H59.363C59.3336 25.447 59.22 25.0803 59.022 24.765C58.8313 24.4497 58.5783 24.204 58.263 24.028C57.955 23.8447 57.614 23.753 57.24 23.753C56.866 23.753 56.525 23.8447 56.217 24.028C55.909 24.204 55.656 24.4533 55.458 24.776C55.2673 25.0913 55.1573 25.4543 55.128 25.865ZM61.43 29V23.269H64.29C64.6127 23.269 64.884 23.3387 65.104 23.478C65.324 23.61 65.489 23.7823 65.599 23.995C65.7163 24.2077 65.775 24.435 65.775 24.677C65.775 24.985 65.7017 25.2637 65.555 25.513C65.4083 25.755 65.1957 25.9383 64.917 26.063C65.247 26.1583 65.5147 26.3307 65.72 26.58C65.9253 26.8293 66.028 27.13 66.028 27.482C66.028 27.79 65.951 28.0577 65.797 28.285C65.6504 28.5123 65.445 28.6883 65.181 28.813C64.9243 28.9377 64.6273 29 64.29 29H61.43ZM62.145 28.461H64.268C64.4587 28.461 64.631 28.4133 64.785 28.318C64.9463 28.2153 65.071 28.0833 65.159 27.922C65.2543 27.7607 65.302 27.592 65.302 27.416C65.302 27.2253 65.258 27.053 65.17 26.899C65.082 26.7377 64.9647 26.6093 64.818 26.514C64.6713 26.4187 64.5027 26.371 64.312 26.371H62.145V28.461ZM62.145 25.854H64.092C64.2827 25.854 64.4513 25.8027 64.598 25.7C64.7447 25.5973 64.8583 25.4653 64.939 25.304C65.0197 25.1427 65.06 24.974 65.06 24.798C65.06 24.534 64.972 24.303 64.796 24.105C64.6273 23.907 64.4073 23.808 64.136 23.808H62.145V25.854ZM67.0857 27.35C67.0857 26.9907 67.1884 26.6827 67.3937 26.426C67.5991 26.162 67.8814 25.9603 68.2407 25.821C68.6074 25.6743 69.0291 25.601 69.5057 25.601C69.7844 25.601 70.0741 25.623 70.3747 25.667C70.6754 25.711 70.9431 25.777 71.1777 25.865V25.381C71.1777 24.897 71.0347 24.512 70.7487 24.226C70.4627 23.94 70.0667 23.797 69.5607 23.797C69.2527 23.797 68.9484 23.8557 68.6477 23.973C68.3544 24.083 68.0464 24.248 67.7237 24.468L67.4377 23.94C67.8117 23.6833 68.1784 23.4927 68.5377 23.368C68.8971 23.236 69.2637 23.17 69.6377 23.17C70.3417 23.17 70.8991 23.3717 71.3097 23.775C71.7204 24.1783 71.9257 24.7357 71.9257 25.447V28.098C71.9257 28.2007 71.9477 28.2777 71.9917 28.329C72.0357 28.373 72.1054 28.3987 72.2007 28.406V29C72.1201 29.0073 72.0504 29.0147 71.9917 29.022C71.9331 29.0293 71.8891 29.0293 71.8597 29.022C71.6764 29.0147 71.5371 28.956 71.4417 28.846C71.3464 28.736 71.2951 28.6187 71.2877 28.494L71.2767 28.076C71.0201 28.406 70.6864 28.6627 70.2757 28.846C69.8651 29.022 69.4471 29.11 69.0217 29.11C68.6551 29.11 68.3214 29.033 68.0207 28.879C67.7274 28.7177 67.4964 28.505 67.3277 28.241C67.1664 27.9697 67.0857 27.6727 67.0857 27.35ZM70.9247 27.79C71.0054 27.6873 71.0677 27.5883 71.1117 27.493C71.1557 27.3977 71.1777 27.3133 71.1777 27.24V26.404C70.9284 26.3087 70.6681 26.2353 70.3967 26.184C70.1327 26.1327 69.8651 26.107 69.5937 26.107C69.0584 26.107 68.6257 26.2133 68.2957 26.426C67.9657 26.6387 67.8007 26.9283 67.8007 27.295C67.8007 27.5077 67.8557 27.7093 67.9657 27.9C68.0757 28.0833 68.2371 28.2373 68.4497 28.362C68.6624 28.4793 68.9117 28.538 69.1977 28.538C69.5571 28.538 69.8907 28.4683 70.1987 28.329C70.5141 28.1897 70.7561 28.01 70.9247 27.79ZM73.3329 29L75.0379 26.657C74.6492 26.5983 74.3339 26.4297 74.0919 26.151C73.8572 25.865 73.7399 25.4763 73.7399 24.985C73.7399 24.655 73.8169 24.3617 73.9709 24.105C74.1249 23.8483 74.3412 23.643 74.6199 23.489C74.9059 23.335 75.2395 23.258 75.6209 23.258H77.8099V29H77.0619V26.778H75.7859L74.1689 29H73.3329ZM75.6099 26.206H77.0619V23.852H75.7419C75.3605 23.852 75.0562 23.962 74.8289 24.182C74.6015 24.3947 74.4879 24.666 74.4879 24.996C74.4879 25.3333 74.5795 25.6193 74.7629 25.854C74.9535 26.0887 75.2359 26.206 75.6099 26.206ZM82.6879 29V23.269H83.4359V25.722H84.2939L86.2189 23.269H87.0769L84.8879 26.052L87.3519 29H86.4719L84.2939 26.415H83.4359V29H82.6879ZM90.775 29.11C90.3643 29.11 89.983 29.033 89.631 28.879C89.2863 28.7177 88.9857 28.5013 88.729 28.23C88.4797 27.9513 88.2853 27.636 88.146 27.284C88.0067 26.9247 87.937 26.547 87.937 26.151C87.937 25.7403 88.0067 25.359 88.146 25.007C88.2853 24.6477 88.4833 24.3323 88.74 24.061C88.9967 23.7823 89.2973 23.566 89.642 23.412C89.994 23.2507 90.3753 23.17 90.786 23.17C91.1967 23.17 91.5743 23.2507 91.919 23.412C92.2637 23.566 92.5643 23.7823 92.821 24.061C93.0777 24.3323 93.2757 24.6477 93.415 25.007C93.5543 25.359 93.624 25.7403 93.624 26.151C93.624 26.547 93.5543 26.9247 93.415 27.284C93.2757 27.636 93.0777 27.9513 92.821 28.23C92.5717 28.5013 92.271 28.7177 91.919 28.879C91.5743 29.033 91.193 29.11 90.775 29.11ZM88.696 26.162C88.696 26.5873 88.7877 26.976 88.971 27.328C89.1617 27.6727 89.4147 27.9477 89.73 28.153C90.0453 28.351 90.3937 28.45 90.775 28.45C91.1563 28.45 91.5047 28.3473 91.82 28.142C92.1353 27.9367 92.3883 27.658 92.579 27.306C92.7697 26.9467 92.865 26.558 92.865 26.14C92.865 25.7147 92.7697 25.326 92.579 24.974C92.3883 24.622 92.1353 24.3433 91.82 24.138C91.5047 23.9327 91.1563 23.83 90.775 23.83C90.3937 23.83 90.0453 23.9363 89.73 24.149C89.422 24.3617 89.1727 24.644 88.982 24.996C88.7913 25.3407 88.696 25.7293 88.696 26.162ZM98.021 29.11C97.5443 29.11 97.1153 28.9853 96.734 28.736C96.36 28.4867 96.063 28.1787 95.843 27.812V31.343H95.095V23.269H95.766V24.38C95.9933 24.0207 96.2977 23.731 96.679 23.511C97.0603 23.2837 97.4673 23.17 97.9 23.17C98.296 23.17 98.659 23.2543 98.989 23.423C99.319 23.5843 99.605 23.8043 99.847 24.083C100.089 24.3617 100.276 24.6807 100.408 25.04C100.547 25.392 100.617 25.7587 100.617 26.14C100.617 26.6753 100.507 27.1703 100.287 27.625C100.074 28.0723 99.7737 28.4317 99.385 28.703C98.9963 28.9743 98.5417 29.11 98.021 29.11ZM97.812 28.45C98.1273 28.45 98.4097 28.3877 98.659 28.263C98.9083 28.131 99.121 27.955 99.297 27.735C99.4803 27.515 99.6197 27.2693 99.715 26.998C99.8103 26.7193 99.858 26.4333 99.858 26.14C99.858 25.832 99.803 25.5387 99.693 25.26C99.5903 24.9813 99.44 24.7357 99.242 24.523C99.044 24.3103 98.8167 24.1417 98.56 24.017C98.3033 23.8923 98.0247 23.83 97.724 23.83C97.5333 23.83 97.3353 23.8667 97.13 23.94C96.9247 24.0133 96.7267 24.1197 96.536 24.259C96.3527 24.391 96.1987 24.5413 96.074 24.71C95.9493 24.8787 95.8723 25.0583 95.843 25.249V27.009C95.9603 27.2803 96.118 27.526 96.316 27.746C96.514 27.9587 96.7413 28.131 96.998 28.263C97.262 28.3877 97.5333 28.45 97.812 28.45ZM104.546 29.11C104.135 29.11 103.754 29.033 103.402 28.879C103.057 28.7177 102.757 28.5013 102.5 28.23C102.251 27.9513 102.056 27.636 101.917 27.284C101.778 26.9247 101.708 26.547 101.708 26.151C101.708 25.7403 101.778 25.359 101.917 25.007C102.056 24.6477 102.254 24.3323 102.511 24.061C102.768 23.7823 103.068 23.566 103.413 23.412C103.765 23.2507 104.146 23.17 104.557 23.17C104.968 23.17 105.345 23.2507 105.69 23.412C106.035 23.566 106.335 23.7823 106.592 24.061C106.849 24.3323 107.047 24.6477 107.186 25.007C107.325 25.359 107.395 25.7403 107.395 26.151C107.395 26.547 107.325 26.9247 107.186 27.284C107.047 27.636 106.849 27.9513 106.592 28.23C106.343 28.5013 106.042 28.7177 105.69 28.879C105.345 29.033 104.964 29.11 104.546 29.11ZM102.467 26.162C102.467 26.5873 102.559 26.976 102.742 27.328C102.933 27.6727 103.186 27.9477 103.501 28.153C103.816 28.351 104.165 28.45 104.546 28.45C104.927 28.45 105.276 28.3473 105.591 28.142C105.906 27.9367 106.159 27.658 106.35 27.306C106.541 26.9467 106.636 26.558 106.636 26.14C106.636 25.7147 106.541 25.326 106.35 24.974C106.159 24.622 105.906 24.3433 105.591 24.138C105.276 23.9327 104.927 23.83 104.546 23.83C104.165 23.83 103.816 23.9363 103.501 24.149C103.193 24.3617 102.944 24.644 102.753 24.996C102.562 25.3407 102.467 25.7293 102.467 26.162ZM108.855 29V23.269H109.603V25.733H112.881V23.269H113.629V29H112.881V26.404H109.603V29H108.855ZM115.488 29V23.269H116.236V25.722H117.094L119.019 23.269H119.877L117.688 26.052L120.152 29H119.272L117.094 26.415H116.236V29H115.488ZM120.951 27.35C120.951 26.9907 121.053 26.6827 121.259 26.426C121.464 26.162 121.746 25.9603 122.106 25.821C122.472 25.6743 122.894 25.601 123.371 25.601C123.649 25.601 123.939 25.623 124.24 25.667C124.54 25.711 124.808 25.777 125.043 25.865V25.381C125.043 24.897 124.9 24.512 124.614 24.226C124.328 23.94 123.932 23.797 123.426 23.797C123.118 23.797 122.813 23.8557 122.513 23.973C122.219 24.083 121.911 24.248 121.589 24.468L121.303 23.94C121.677 23.6833 122.043 23.4927 122.403 23.368C122.762 23.236 123.129 23.17 123.503 23.17C124.207 23.17 124.764 23.3717 125.175 23.775C125.585 24.1783 125.791 24.7357 125.791 25.447V28.098C125.791 28.2007 125.813 28.2777 125.857 28.329C125.901 28.373 125.97 28.3987 126.066 28.406V29C125.985 29.0073 125.915 29.0147 125.857 29.022C125.798 29.0293 125.754 29.0293 125.725 29.022C125.541 29.0147 125.402 28.956 125.307 28.846C125.211 28.736 125.16 28.6187 125.153 28.494L125.142 28.076C124.885 28.406 124.551 28.6627 124.141 28.846C123.73 29.022 123.312 29.11 122.887 29.11C122.52 29.11 122.186 29.033 121.886 28.879C121.592 28.7177 121.361 28.505 121.193 28.241C121.031 27.9697 120.951 27.6727 120.951 27.35ZM124.79 27.79C124.87 27.6873 124.933 27.5883 124.977 27.493C125.021 27.3977 125.043 27.3133 125.043 27.24V26.404C124.793 26.3087 124.533 26.2353 124.262 26.184C123.998 26.1327 123.73 26.107 123.459 26.107C122.923 26.107 122.491 26.2133 122.161 26.426C121.831 26.6387 121.666 26.9283 121.666 27.295C121.666 27.5077 121.721 27.7093 121.831 27.9C121.941 28.0833 122.102 28.2373 122.315 28.362C122.527 28.4793 122.777 28.538 123.063 28.538C123.422 28.538 123.756 28.4683 124.064 28.329C124.379 28.1897 124.621 28.01 124.79 27.79Z" fill="#1D1D1F"/>
<path d="M159.221 6.54543H156.786V13.3182H159.221V9.81816C159.221 8.95452 159.497 8.22725 160.462 8.22725C161.656 8.22725 161.565 9.36361 161.565 9.99998V13.2727H164V9.09089C164 7.45452 163.265 6.27271 161.427 6.27271C160.462 6.27271 159.773 6.54543 159.221 7.36361V6.54543Z" fill="#36393A"/>
<path d="M150.905 6.54543H148.47V13.3182H150.905V9.81816C150.905 8.95452 151.181 8.22725 152.192 8.22725C153.386 8.22725 153.295 9.36361 153.295 9.99998V13.2727H155.73V9.09089C155.73 7.45452 154.995 6.27271 153.157 6.27271C152.192 6.27271 151.503 6.54543 150.951 7.36361H150.905V6.54543Z" fill="#36393A"/>
<path d="M147.505 6.54539H145.07V7.18175C144.565 6.59084 143.738 6.31812 142.957 6.31812C140.935 6.31812 139.511 7.95448 139.511 9.90902C139.511 11.8636 140.935 13.5454 142.957 13.5454C143.738 13.5454 144.565 13.2272 145.024 12.5454H145.07V13.2727H147.505V6.54539ZM143.646 8.40902C144.611 8.40902 145.208 9.09084 145.208 9.90902C145.208 10.7727 144.611 11.4545 143.646 11.4545C142.635 11.4545 142.084 10.8181 142.084 9.90902C142.084 9.09084 142.681 8.40902 143.646 8.40902Z" fill="#36393A"/>
<path d="M129.862 6.54534H127.427V13.3181H129.862V10.0908C129.862 9.36353 129.862 8.18171 130.919 8.18171C132.021 8.18171 132.021 9.36353 132.021 10.0908V13.3181H134.456V10.0908C134.456 9.31807 134.502 8.22716 135.651 8.22716C136.662 8.22716 136.662 9.40898 136.662 10.0908V13.3181H139.097V9.04534C139.097 7.45443 138.5 6.36353 136.754 6.36353C135.835 6.36353 134.916 6.81807 134.456 7.68171C133.951 6.77262 133.124 6.36353 132.113 6.36353C131.24 6.36353 130.505 6.68171 129.954 7.40898H129.908V6.54534H129.862Z" fill="#36393A"/>
<path d="M119.203 6.54541V10.6363C119.203 12.8636 120.811 13.5909 122.878 13.5909C124.946 13.5909 126.554 12.8636 126.554 10.6363V6.54541H124.119V10.1818C124.119 11.0454 123.889 11.6363 122.924 11.6363C121.913 11.6363 121.73 11.0454 121.73 10.1818V6.54541H119.203Z" fill="#36393A"/>
<path d="M118.1 6.54539H115.664V7.18175C115.159 6.59084 114.332 6.31812 113.551 6.31812C111.529 6.31812 110.105 7.95448 110.105 9.90902C110.105 11.8636 111.529 13.5454 113.551 13.5454C114.332 13.5454 115.159 13.2272 115.618 12.5454H115.664V13.2727H118.1V6.54539ZM114.194 8.40902C115.205 8.40902 115.756 9.09084 115.756 9.90902C115.756 10.7727 115.159 11.4545 114.194 11.4545C113.229 11.4545 112.632 10.8181 112.632 9.90902C112.632 9.09084 113.229 8.40902 114.194 8.40902Z" fill="#36393A"/>
<path d="M107.532 6.54538H105.097V13.3181H107.532V10.5908C107.532 9.40901 107.854 8.54538 109.186 8.54538C109.554 8.54538 109.921 8.59083 110.243 8.77265V6.45447H109.784C108.819 6.45447 108.038 6.8181 107.578 7.63629H107.532V6.54538Z" fill="#36393A"/>
<path d="M103.581 8.54545H104.959V6.54545H103.581V4.5H101.192V6.54545H100.365V8.54545H101.192V13.3182H103.581V8.54545Z" fill="#36393A"/>
<path d="M99.9513 6.77266C99.2162 6.45448 98.4811 6.31812 97.7 6.31812C96.1838 6.31812 94.6676 7.04539 94.6676 8.72721C94.6676 9.95448 95.4486 10.3181 96.1838 10.5454C96.9649 10.7272 97.7 10.7727 97.7 11.3181C97.7 11.6818 97.2405 11.8181 96.9189 11.8181C96.3216 11.8181 95.4946 11.4545 94.9892 11.0908L94.1162 12.7727C94.9432 13.2727 95.9081 13.5454 96.873 13.5454C98.4811 13.5454 100.089 12.8181 100.089 10.9999C100.089 9.77266 99.2162 9.22721 98.1135 8.99993C97.7919 8.95448 97.0108 8.86357 97.0108 8.40902C97.0108 8.09084 97.5162 7.95448 97.7919 7.95448C98.2054 7.95448 98.7108 8.09084 99.0784 8.27266L99.9513 6.77266Z" fill="#36393A"/>
<path d="M92.2324 0.681763C88.6945 2.99994 85.1567 5.36358 81.6189 7.68176C80.0567 8.86358 80.1026 10.6818 81.1594 12.1818L92.1864 4.86358L92.2324 0.681763Z" fill="#36393A"/>
<path d="M79.1836 18.8635C82.7214 16.5453 86.2593 14.1817 89.7971 11.8635C91.3593 10.6817 91.3133 8.86353 90.2566 7.36353L79.2295 14.6817L79.1836 18.8635Z" fill="#36393A"/>
</svg>
